# xmcd
#
# Track frame offsets: 
#        150
#        16037
#        51370
#        80025
#
# Disc length: 1280 seconds
#
# Revision: 2
# Processed by: cddbd v1.5.2PL0 Copyright (c) Steve Scherf et al.
# Submitted via: ExactAudioCopy v1.0b6
#
DISCID=2804fe04
DTITLE=The Reese Project - So Deep
DYEAR=1993
DGENRE=House
TTITLE0=So Deep (CJ Mackintosh Radio Version)
TTITLE1=So Deep (CJ Mackintosh FXTC Club Anthem)
TTITLE2=So Deep (Joey Negro K.O.K Club Mix)
TTITLE3=So Deep (Joey Negro Direct Mix)
EXTD=
EXTT0=
EXTT1=
EXTT2=
EXTT3=
PLAYORDER=
